<?xml version="1.0" encoding="UTF-8" standalone="no"?>
<!-- Created with Inkscape (http://www.inkscape.org/) -->

<svg
   xmlns:dc="http://purl.org/dc/elements/1.1/"
   xmlns:cc="http://creativecommons.org/ns#"
   xmlns:rdf="http://www.w3.org/1999/02/22-rdf-syntax-ns#"
   xmlns:svg="http://www.w3.org/2000/svg"
   xmlns="http://www.w3.org/2000/svg"
   xmlns:sodipodi="http://sodipodi.sourceforge.net/DTD/sodipodi-0.dtd"
   xmlns:inkscape="http://www.inkscape.org/namespaces/inkscape"
   width="51.100845"
   height="50.000004"
   id="svg2"
   version="1.1"
   inkscape:version="0.48.2 r9819"
   sodipodi:docname="magnify.svg">
  <defs
     id="defs4" />
  <sodipodi:namedview
     id="base"
     pagecolor="#ffffff"
     bordercolor="#666666"
     borderopacity="1.0"
     inkscape:pageopacity="0.0"
     inkscape:pageshadow="2"
     inkscape:zoom="11.814516"
     inkscape:cx="25"
     inkscape:cy="24.461431"
     inkscape:document-units="px"
     inkscape:current-layer="g3015"
     showgrid="false"
     showguides="true"
     inkscape:guide-bbox="true"
     fit-margin-top="0"
     fit-margin-left="0"
     fit-margin-right="0"
     fit-margin-bottom="0"
     inkscape:window-width="1289"
     inkscape:window-height="796"
     inkscape:window-x="0"
     inkscape:window-y="0"
     inkscape:window-maximized="0" />
  <metadata
     id="metadata7">
    <rdf:RDF>
      <cc:Work
         rdf:about="">
        <dc:format>image/svg+xml</dc:format>
        <dc:type
           rdf:resource="http://purl.org/dc/dcmitype/StillImage" />
        <dc:title></dc:title>
      </cc:Work>
    </rdf:RDF>
  </metadata>
  <g
     inkscape:label="Layer 1"
     inkscape:groupmode="layer"
     id="g3015"
     transform="translate(-258.732,-403.82445)">
    <path
       style="color:#000000;fill:#1a1a1a;fill-opacity:1;fill-rule:nonzero;stroke:none;stroke-width:2;marker:none;visibility:visible;display:inline;overflow:visible;enable-background:accumulate"
       d="m 279.44294,403.83254 c -11.52809,0.56393 -20.71094,9.77194 -20.71094,21.03709 0,11.62855 9.77001,21.0697 21.81987,21.0697 4.39788,0 8.47835,-1.29468 11.90471,-3.45726 0.0979,0.11797 0.17992,0.25018 0.29354,0.35877 l 10.37178,9.88255 c 1.58871,1.51848 4.09141,1.45825 5.60988,-0.13046 1.51848,-1.58873 1.45826,-4.0588 -0.13046,-5.57728 l -10.33916,-9.88254 c 2.57723,-3.45968 4.10958,-7.67985 4.10958,-12.26348 0,-11.62854 -9.77001,-21.03709 -21.81987,-21.03709 -0.37656,0 -0.73707,-0.0182 -1.10893,0 z m 1.10893,8.21914 c 7.3347,0 13.27457,5.7397 13.27457,12.81795 0,7.07824 -5.93987,12.81795 -13.27457,12.81795 -7.3347,0 -13.27457,-5.73971 -13.27457,-12.81795 0,-7.07825 5.93987,-12.81795 13.27457,-12.81795 z"
       id="path3086"
       inkscape:connector-curvature="0" />
  </g>
</svg>
